<?xml version="1.0" encoding="utf-8"?>
<!-- Generator: Adobe Illustrator 16.0.4, SVG Export Plug-In . SVG Version: 6.00 Build 0)  -->
<!DOCTYPE svg PUBLIC "-//W3C//DTD SVG 1.1//EN" "http://www.w3.org/Graphics/SVG/1.1/DTD/svg11.dtd">
<svg version="1.1" id="Layer_1" xmlns="http://www.w3.org/2000/svg" xmlns:xlink="http://www.w3.org/1999/xlink" x="0px" y="0px"
	 width="916.064px" height="550.982px" viewBox="0 0 916.064 550.982" enable-background="new 0 0 916.064 550.982"
	 xml:space="preserve">
<g>
	<path fill="#B3B3B3" d="M-1624.541,331.021l2.676,16.843l36.593-8.971l-28.109-130.958l-43.3,10.614l-31.151,145.486l36.593-8.971
		l2.842-18.196L-1624.541,331.021z M-1640.206,283.704l2.421-17.29c0.054-0.309,0.166-1.2,0.332-2.67s0.442-4.095,0.83-7.881
		c0.221-1.898,0.428-3.646,0.623-5.242s0.346-3.031,0.457-4.309l1.137,12.756c0.289,2.607,0.521,4.77,0.695,6.48
		c0.174,1.715,0.318,3.063,0.436,4.046c1.097,8.778,1.704,13.81,1.822,15.087c0.174,1.507,0.289,2.281,0.345,2.328l2.333,15.497
		l-14.941,3.663L-1640.206,283.704z M-1497.703,317.426l-61.977,15.193l-0.347-137.764l35.403-8.68l0.264,104.662l26.574-6.516
		L-1497.703,317.426z M-1436.557,302.438l-35.403,8.678l-0.347-137.764l35.403-8.68L-1436.557,302.438z M-1336.553,173.105
		l-20.292,4.974l0.264,104.752l-35.404,8.679l-0.264-104.752l-19.526,4.787l-0.083-33.012l75.223-18.441L-1336.553,173.105z
		 M-1217.334,110.846l-30.28,86.883l0.146,58.354l-35.403,8.68l-0.146-58.354l-32.718-71.44l36.933-9.054l6.419,18.872
		c1.254,3.68,2.382,7.243,3.382,10.688c0.999,3.445,1.899,6.766,2.701,9.962c1.289-5.375,2.41-10.01,3.363-13.903
		c0.953-3.895,1.795-7.061,2.524-9.504l6.4-22.192L-1217.334,110.846z"/>
	<path d="M-1959.228,338.697c-0.039-15.584-5.108-26.365-15.203-32.342c-7.942-4.661-19.892-5.035-35.854-1.121l-36.253,8.887
		l0.347,137.765l35.233-8.638l-0.121-48.182l-0.277-9.039c0.627,1.753,1.155,3.26,1.584,4.523c0.428,1.266,0.728,2.291,0.898,3.082
		l17.613,44.787l38.291-9.387l-26.463-50.832C-1965.921,368.521-1959.186,355.354-1959.228,338.697z M-1998.42,361.252
		c-2.708,3.938-6.1,6.404-10.176,7.403l-2.377,0.583l-0.082-32.836l1.273-0.312c10.244-2.511,15.38,1.38,15.406,11.669
		C-1994.363,352.816-1995.711,357.314-1998.42,361.252z"/>
	<path d="M-1884.273,379.783c-3.283,0.806-5.621,0.129-7.014-2.029c-1.395-2.158-2.098-6.242-2.113-12.25l-0.223-88.869
		l-35.404,8.68l0.232,92.17c0.044,17.668,5.283,29.24,15.719,34.717c8.223,4.293,18.391,4.955,30.503,1.985
		c10.698-2.622,19.775-7.705,27.232-15.247c5.536-5.642,9.485-11.4,11.851-17.279c2.42-5.651,3.621-12.554,3.601-20.702
		l-0.245-97.436l-35.404,8.679l0.224,88.959c0.016,6.188-0.625,10.658-1.92,13.416
		C-1878.533,377.215-1880.878,378.951-1884.273,379.783z"/>
	<path d="M-1751.094,299.906c-1.227-3.389-2.324-6.395-3.293-9.014l-17.866-44.012l-33.791,8.284l0.347,137.765l33.791-8.283
		l-0.088-35.156c-0.014-5.412-0.199-11.674-0.557-18.789c-0.358-7.115-0.918-15.43-1.678-24.945
		c1.143,4.006,2.47,8.188,3.982,12.549c1.511,4.362,3.208,9.021,5.09,13.977l17.956,46.309l33.791-8.283l-0.347-137.766
		l-33.791,8.283l0.078,30.961c0.015,5.771,0.372,12.826,1.072,21.165c0.701,8.343,1.717,18.33,3.049,29.966l-3.681-11.24
		C-1748.514,307.219-1749.867,303.297-1751.094,299.906z"/>
	<polygon points="-2046.936,243.903 -2046.936,274.866 -1216.936,62.979 -1216.936,32.018 	"/>
	<polygon points="-2046.936,527.866 -1216.936,315.979 -1216.936,285.018 -2046.936,496.903 	"/>
</g>
<path fill="#FFFFFF" d="M-598.541,335.986l2.676,16.844l36.593-8.971L-587.382,212.9l-43.3,10.615l-31.151,145.486l36.593-8.971
	l2.842-18.197L-598.541,335.986z M-614.206,288.67l2.421-17.291c0.054-0.309,0.166-1.199,0.332-2.67
	c0.166-1.469,0.442-4.094,0.83-7.881c0.221-1.898,0.428-3.646,0.623-5.242s0.346-3.031,0.457-4.309l1.137,12.756
	c0.289,2.607,0.521,4.77,0.695,6.48c0.174,1.715,0.318,3.064,0.436,4.047c1.097,8.777,1.704,13.809,1.822,15.086
	c0.174,1.508,0.289,2.281,0.345,2.328l2.333,15.498l-14.941,3.662L-614.206,288.67z M-471.703,322.391l-61.977,15.193
	l-0.347-137.764l35.403-8.68l0.264,104.662l26.574-6.516L-471.703,322.391z M-410.557,307.402l-35.403,8.678l-0.347-137.764
	l35.403-8.68L-410.557,307.402z M-310.553,178.07l-20.292,4.975l0.264,104.752l-35.404,8.678l-0.264-104.752l-19.526,4.787
	l-0.083-33.012l75.223-18.44L-310.553,178.07z M-191.334,115.811l-30.28,86.883l0.146,58.354l-35.403,8.68l-0.146-58.354
	l-32.718-71.439l36.933-9.054l6.419,18.872c1.254,3.68,2.382,7.242,3.382,10.688c0.999,3.445,1.899,6.766,2.701,9.963
	c1.289-5.375,2.41-10.01,3.363-13.904s1.795-7.061,2.524-9.504l6.4-22.191L-191.334,115.811z M-933.228,343.662
	c-0.039-15.584-5.108-26.365-15.203-32.342c-7.942-4.66-19.892-5.035-35.854-1.121l-36.253,8.887l0.347,137.766l35.233-8.639
	l-0.121-48.182l-0.277-9.039c0.627,1.754,1.155,3.26,1.584,4.523c0.428,1.266,0.728,2.291,0.898,3.082l17.613,44.787l38.291-9.387
	l-26.463-50.832C-939.921,373.486-933.186,360.318-933.228,343.662z M-972.42,366.217c-2.708,3.938-6.1,6.404-10.176,7.404
	l-2.377,0.582l-0.082-32.836l1.273-0.311c10.244-2.512,15.38,1.379,15.406,11.668C-968.363,357.781-969.711,362.279-972.42,366.217z
	 M-851.235,379.541c1.295-2.758,1.936-7.229,1.92-13.416l-0.224-88.959l35.404-8.678l0.245,97.436
	c0.021,8.148-1.181,15.051-3.601,20.701c-2.365,5.879-6.314,11.639-11.851,17.279c-7.457,7.543-16.534,12.625-27.232,15.248
	c-12.112,2.969-22.28,2.307-30.503-1.986c-10.436-5.477-15.675-17.049-15.719-34.717l-0.232-92.17l35.404-8.68l0.223,88.869
	c0.016,6.008,0.719,10.092,2.113,12.25c1.393,2.158,3.73,2.836,7.014,2.029C-854.878,383.916-852.533,382.18-851.235,379.541z
	 M-721.028,316.641l3.681,11.24c-1.332-11.635-2.348-21.623-3.049-29.965c-0.7-8.34-1.058-15.395-1.072-21.166l-0.078-30.961
	l33.791-8.283l0.347,137.766l-33.791,8.283l-17.956-46.309c-1.882-4.955-3.579-9.613-5.09-13.977
	c-1.513-4.359-2.84-8.543-3.982-12.549c0.76,9.516,1.319,17.83,1.678,24.945c0.357,7.115,0.543,13.377,0.557,18.789l0.088,35.156
	l-33.791,8.283l-0.347-137.764l33.791-8.285l17.866,44.012c0.969,2.619,2.066,5.625,3.293,9.014
	C-723.867,308.262-722.514,312.184-721.028,316.641z M-190.936,36.982v30.963l-830,211.887v-30.963L-190.936,36.982z
	 M-1020.936,501.869l830-211.887v30.963l-830,211.887V501.869z"/>
<path fill="#E6E6E6" d="M-598.541,1187.986l2.676,16.844l36.593-8.971l-28.109-130.959l-43.3,10.615l-31.151,145.486l36.593-8.971
	l2.842-18.197L-598.541,1187.986z M-614.206,1140.67l2.421-17.291c0.054-0.309,0.166-1.199,0.332-2.67
	c0.166-1.469,0.442-4.094,0.83-7.881c0.221-1.898,0.428-3.646,0.623-5.242s0.346-3.031,0.457-4.309l1.137,12.756
	c0.289,2.607,0.521,4.77,0.695,6.48c0.174,1.715,0.318,3.064,0.436,4.047c1.097,8.777,1.704,13.809,1.822,15.086
	c0.174,1.508,0.289,2.281,0.345,2.328l2.333,15.498l-14.941,3.662L-614.206,1140.67z M-471.703,1174.391l-61.977,15.193
	l-0.347-137.764l35.403-8.68l0.264,104.662l26.574-6.516L-471.703,1174.391z M-410.557,1159.402l-35.403,8.678l-0.347-137.764
	l35.403-8.68L-410.557,1159.402z M-310.553,1030.07l-20.292,4.975l0.264,104.752l-35.404,8.678l-0.264-104.752l-19.526,4.787
	l-0.083-33.012l75.223-18.44L-310.553,1030.07z M-191.334,967.811l-30.28,86.883l0.146,58.354l-35.403,8.68l-0.146-58.354
	l-32.718-71.439l36.933-9.054l6.419,18.872c1.254,3.68,2.382,7.242,3.382,10.688c0.999,3.445,1.899,6.766,2.701,9.963
	c1.289-5.375,2.41-10.01,3.363-13.904s1.795-7.061,2.524-9.504l6.4-22.191L-191.334,967.811z M-933.228,1195.662
	c-0.039-15.584-5.108-26.365-15.203-32.342c-7.942-4.66-19.892-5.035-35.854-1.121l-36.253,8.887l0.347,137.766l35.233-8.639
	l-0.121-48.182l-0.277-9.039c0.627,1.754,1.155,3.26,1.584,4.523c0.428,1.266,0.728,2.291,0.898,3.082l17.613,44.787l38.291-9.387
	l-26.463-50.832C-939.921,1225.486-933.186,1212.318-933.228,1195.662z M-972.42,1218.217c-2.708,3.938-6.1,6.404-10.176,7.404
	l-2.377,0.582l-0.082-32.836l1.273-0.311c10.244-2.512,15.38,1.379,15.406,11.668
	C-968.363,1209.781-969.711,1214.279-972.42,1218.217z M-851.235,1231.541c1.295-2.758,1.936-7.229,1.92-13.416l-0.224-88.959
	l35.404-8.678l0.245,97.436c0.021,8.148-1.181,15.051-3.601,20.701c-2.365,5.879-6.314,11.639-11.851,17.279
	c-7.457,7.543-16.534,12.625-27.232,15.248c-12.112,2.969-22.28,2.307-30.503-1.986c-10.436-5.477-15.675-17.049-15.719-34.717
	l-0.232-92.17l35.404-8.68l0.223,88.869c0.016,6.008,0.719,10.092,2.113,12.25c1.393,2.158,3.73,2.836,7.014,2.029
	C-854.878,1235.916-852.533,1234.18-851.235,1231.541z M-721.028,1168.641l3.681,11.24c-1.332-11.635-2.348-21.623-3.049-29.965
	c-0.7-8.34-1.058-15.395-1.072-21.166l-0.078-30.961l33.791-8.283l0.347,137.766l-33.791,8.283l-17.956-46.309
	c-1.882-4.955-3.579-9.613-5.09-13.977c-1.513-4.359-2.84-8.543-3.982-12.549c0.76,9.516,1.319,17.83,1.678,24.945
	c0.357,7.115,0.543,13.377,0.557,18.789l0.088,35.156l-33.791,8.283l-0.347-137.764l33.791-8.285l17.866,44.012
	c0.969,2.619,2.066,5.625,3.293,9.014C-723.867,1160.262-722.514,1164.184-721.028,1168.641z M-190.936,888.982v30.963l-830,211.887
	v-30.963L-190.936,888.982z M-1020.936,1353.869l830-211.887v30.963l-830,211.887V1353.869z"/>
<path d="M464.459,332.004l2.676,16.843l36.593-8.971l-28.109-130.958l-43.3,10.614l-31.151,145.486l36.593-8.971l2.842-18.196
	L464.459,332.004z M448.794,284.687l2.421-17.29c0.054-0.309,0.166-1.2,0.332-2.67s0.442-4.095,0.83-7.881
	c0.221-1.898,0.428-3.646,0.623-5.242s0.346-3.031,0.457-4.309l1.137,12.756c0.289,2.607,0.521,4.77,0.695,6.48
	c0.174,1.715,0.318,3.063,0.436,4.046c1.097,8.778,1.704,13.81,1.822,15.087c0.174,1.507,0.289,2.281,0.345,2.328l2.333,15.497
	l-14.941,3.663L448.794,284.687z M591.297,318.408l-61.977,15.193l-0.347-137.764l35.403-8.68l0.264,104.662l26.574-6.516
	L591.297,318.408z M652.443,303.42l-35.403,8.678l-0.347-137.764l35.403-8.68L652.443,303.42z M752.447,174.088l-20.292,4.974
	l0.264,104.752l-35.404,8.679l-0.264-104.752l-19.526,4.787l-0.083-33.012l75.223-18.441L752.447,174.088z M871.666,111.828
	l-30.28,86.883l0.146,58.354l-35.403,8.68l-0.146-58.354l-32.718-71.44l36.933-9.054l6.419,18.872
	c1.254,3.68,2.382,7.243,3.382,10.688c0.999,3.445,1.899,6.766,2.701,9.962c1.289-5.375,2.41-10.01,3.363-13.903
	c0.953-3.895,1.795-7.061,2.524-9.504l6.4-22.192L871.666,111.828z M129.772,339.68c-0.039-15.584-5.108-26.365-15.203-32.342
	c-7.942-4.661-19.892-5.035-35.854-1.121l-36.253,8.887l0.347,137.765l35.233-8.638l-0.121-48.182l-0.277-9.039
	c0.627,1.753,1.155,3.26,1.584,4.523c0.428,1.266,0.728,2.291,0.898,3.082l17.613,44.787l38.291-9.387l-26.463-50.832
	C123.079,369.504,129.814,356.336,129.772,339.68z M90.58,362.234c-2.708,3.938-6.1,6.404-10.176,7.403l-2.377,0.583l-0.082-32.836
	l1.273-0.312c10.244-2.511,15.38,1.38,15.406,11.669C94.637,353.799,93.289,358.297,90.58,362.234z M211.765,375.559
	c1.295-2.758,1.936-7.229,1.92-13.416l-0.224-88.959l35.404-8.679l0.245,97.436c0.021,8.148-1.181,15.051-3.601,20.702
	c-2.365,5.879-6.314,11.638-11.851,17.279c-7.457,7.542-16.534,12.625-27.232,15.247c-12.112,2.97-22.28,2.308-30.503-1.985
	c-10.436-5.477-15.675-17.049-15.719-34.717l-0.232-92.17l35.404-8.68l0.223,88.869c0.016,6.008,0.719,10.092,2.113,12.25
	c1.393,2.158,3.73,2.835,7.014,2.029C208.122,379.934,210.467,378.197,211.765,375.559z M341.972,312.658l3.681,11.24
	c-1.332-11.636-2.348-21.623-3.049-29.966c-0.7-8.339-1.058-15.394-1.072-21.165l-0.078-30.961l33.791-8.283l0.347,137.766
	l-33.791,8.283l-17.956-46.309c-1.882-4.955-3.579-9.614-5.09-13.977c-1.513-4.36-2.84-8.543-3.982-12.549
	c0.76,9.516,1.319,17.83,1.678,24.945c0.357,7.115,0.543,13.377,0.557,18.789l0.088,35.156l-33.791,8.283l-0.347-137.765
	l33.791-8.284l17.866,44.012c0.969,2.619,2.066,5.625,3.293,9.014C339.133,304.279,340.486,308.201,341.972,312.658z M872.064,33
	v30.962l-830,211.887v-30.963L872.064,33z M42.064,497.886l830-211.886v30.962l-830,211.887V497.886z"/>
<g>
</g>
<g>
</g>
<g>
</g>
<g>
</g>
<g>
</g>
<g>
</g>
<g>
</g>
<g>
</g>
<g>
</g>
<g>
</g>
<g>
</g>
<g>
</g>
<g>
</g>
<g>
</g>
<g>
</g>
</svg>
