<?xml version="1.0" encoding="utf-8"?>
<!-- Generator: Adobe Illustrator 16.0.4, SVG Export Plug-In . SVG Version: 6.00 Build 0)  -->
<!DOCTYPE svg PUBLIC "-//W3C//DTD SVG 1.1//EN" "http://www.w3.org/Graphics/SVG/1.1/DTD/svg11.dtd">
<svg version="1.1" id="Layer_1" xmlns="http://www.w3.org/2000/svg" xmlns:xlink="http://www.w3.org/1999/xlink" x="0px" y="0px"
	 width="916.064px" height="550.982px" viewBox="0 0 916.064 550.982" enable-background="new 0 0 916.064 550.982"
	 xml:space="preserve">
<g>
	<path fill="#B3B3B3" d="M-561.541-520.979l2.676,16.843l36.593-8.971l-28.109-130.958l-43.3,10.614l-31.151,145.486l36.593-8.971
		l2.842-18.196L-561.541-520.979z M-577.206-568.296l2.421-17.29c0.054-0.309,0.166-1.2,0.332-2.67s0.442-4.095,0.83-7.881
		c0.221-1.898,0.428-3.646,0.623-5.242s0.346-3.031,0.457-4.309l1.137,12.756c0.289,2.607,0.521,4.77,0.695,6.48
		c0.174,1.715,0.318,3.063,0.436,4.046c1.097,8.778,1.704,13.81,1.822,15.087c0.174,1.507,0.289,2.281,0.345,2.328l2.333,15.497
		l-14.941,3.663L-577.206-568.296z M-434.703-534.574l-61.977,15.193l-0.347-137.764l35.403-8.68l0.264,104.662l26.574-6.516
		L-434.703-534.574z M-373.557-549.562l-35.403,8.678l-0.347-137.764l35.403-8.68L-373.557-549.562z M-273.553-678.895
		l-20.292,4.974l0.264,104.752l-35.404,8.679l-0.264-104.752l-19.526,4.787l-0.083-33.012l75.223-18.441L-273.553-678.895z
		 M-154.334-741.154l-30.28,86.883l0.146,58.354l-35.403,8.68l-0.146-58.354l-32.718-71.44l36.933-9.054l6.419,18.872
		c1.254,3.68,2.382,7.243,3.382,10.688c0.999,3.445,1.899,6.766,2.701,9.962c1.289-5.375,2.41-10.01,3.363-13.903
		c0.953-3.895,1.795-7.061,2.524-9.504l6.4-22.192L-154.334-741.154z"/>
	<path d="M-896.228-513.303c-0.039-15.584-5.108-26.365-15.203-32.342c-7.942-4.661-19.892-5.035-35.854-1.121l-36.253,8.887
		l0.347,137.765l35.233-8.638l-0.121-48.182l-0.277-9.039c0.627,1.753,1.155,3.26,1.584,4.523c0.428,1.266,0.728,2.291,0.898,3.082
		l17.613,44.787l38.291-9.387l-26.463-50.832C-902.921-483.479-896.186-496.646-896.228-513.303z M-935.42-490.748
		c-2.708,3.938-6.1,6.404-10.176,7.403l-2.377,0.583l-0.082-32.836l1.273-0.312c10.244-2.511,15.38,1.38,15.406,11.669
		C-931.363-499.184-932.711-494.686-935.42-490.748z"/>
	<path d="M-821.273-472.217c-3.283,0.806-5.621,0.129-7.014-2.029c-1.395-2.158-2.098-6.242-2.113-12.25l-0.223-88.869l-35.404,8.68
		l0.232,92.17c0.044,17.668,5.283,29.24,15.719,34.717c8.223,4.293,18.391,4.955,30.503,1.985
		c10.698-2.622,19.775-7.705,27.232-15.247c5.536-5.642,9.485-11.4,11.851-17.279c2.42-5.651,3.621-12.554,3.601-20.702
		l-0.245-97.436l-35.404,8.679l0.224,88.959c0.016,6.188-0.625,10.658-1.92,13.416
		C-815.533-474.785-817.878-473.049-821.273-472.217z"/>
	<path d="M-688.094-552.094c-1.227-3.389-2.324-6.395-3.293-9.014l-17.866-44.012l-33.791,8.284l0.347,137.765l33.791-8.283
		l-0.088-35.156c-0.014-5.412-0.199-11.674-0.557-18.789c-0.358-7.115-0.918-15.43-1.678-24.945
		c1.143,4.006,2.47,8.188,3.982,12.549c1.511,4.362,3.208,9.021,5.09,13.977l17.956,46.309l33.791-8.283l-0.347-137.766
		l-33.791,8.283l0.078,30.961c0.015,5.771,0.372,12.826,1.072,21.165c0.701,8.343,1.717,18.33,3.049,29.966l-3.681-11.24
		C-685.514-544.781-686.867-548.703-688.094-552.094z"/>
	<polygon points="-983.936,-608.097 -983.936,-577.134 -153.936,-789.021 -153.936,-819.982 	"/>
	<polygon points="-983.936,-324.134 -153.936,-536.021 -153.936,-566.982 -983.936,-355.097 	"/>
</g>
<path fill="#FFFFFF" d="M464.459-516.014l2.676,16.844l36.593-8.971L475.618-639.1l-43.3,10.615l-31.151,145.486l36.593-8.971
	l2.842-18.197L464.459-516.014z M448.794-563.33l2.421-17.291c0.054-0.309,0.166-1.199,0.332-2.67
	c0.166-1.469,0.442-4.094,0.83-7.881c0.221-1.898,0.428-3.646,0.623-5.242s0.346-3.031,0.457-4.309l1.137,12.756
	c0.289,2.607,0.521,4.77,0.695,6.48c0.174,1.715,0.318,3.064,0.436,4.047c1.097,8.777,1.704,13.809,1.822,15.086
	c0.174,1.508,0.289,2.281,0.345,2.328l2.333,15.498l-14.941,3.662L448.794-563.33z M591.297-529.609l-61.977,15.193l-0.347-137.764
	l35.403-8.68l0.264,104.662l26.574-6.516L591.297-529.609z M652.443-544.598l-35.403,8.678l-0.347-137.764l35.403-8.68
	L652.443-544.598z M752.447-673.93l-20.292,4.975l0.264,104.752l-35.404,8.678l-0.264-104.752l-19.526,4.787l-0.083-33.012
	l75.223-18.44L752.447-673.93z M871.666-736.189l-30.28,86.883l0.146,58.354l-35.403,8.68l-0.146-58.354l-32.718-71.439
	l36.933-9.054l6.419,18.872c1.254,3.68,2.382,7.242,3.382,10.688c0.999,3.445,1.899,6.766,2.701,9.963
	c1.289-5.375,2.41-10.01,3.363-13.904s1.795-7.061,2.524-9.504l6.4-22.191L871.666-736.189z M129.772-508.338
	c-0.039-15.584-5.108-26.365-15.203-32.342c-7.942-4.66-19.892-5.035-35.854-1.121l-36.253,8.887l0.347,137.766l35.233-8.639
	l-0.121-48.182l-0.277-9.039c0.627,1.754,1.155,3.26,1.584,4.523c0.428,1.266,0.728,2.291,0.898,3.082l17.613,44.787l38.291-9.387
	l-26.463-50.832C123.079-478.514,129.814-491.682,129.772-508.338z M90.58-485.783c-2.708,3.938-6.1,6.404-10.176,7.404
	l-2.377,0.582l-0.082-32.836l1.273-0.311c10.244-2.512,15.38,1.379,15.406,11.668C94.637-494.219,93.289-489.721,90.58-485.783z
	 M211.765-472.459c1.295-2.758,1.936-7.229,1.92-13.416l-0.224-88.959l35.404-8.678l0.245,97.436
	c0.021,8.148-1.181,15.051-3.601,20.701c-2.365,5.879-6.314,11.639-11.851,17.279c-7.457,7.543-16.534,12.625-27.232,15.248
	c-12.112,2.969-22.28,2.307-30.503-1.986c-10.436-5.477-15.675-17.049-15.719-34.717l-0.232-92.17l35.404-8.68l0.223,88.869
	c0.016,6.008,0.719,10.092,2.113,12.25c1.393,2.158,3.73,2.836,7.014,2.029C208.122-468.084,210.467-469.82,211.765-472.459z
	 M341.972-535.359l3.681,11.24c-1.332-11.635-2.348-21.623-3.049-29.965c-0.7-8.34-1.058-15.395-1.072-21.166l-0.078-30.961
	l33.791-8.283l0.347,137.766l-33.791,8.283l-17.956-46.309c-1.882-4.955-3.579-9.613-5.09-13.977
	c-1.513-4.359-2.84-8.543-3.982-12.549c0.76,9.516,1.319,17.83,1.678,24.945c0.357,7.115,0.543,13.377,0.557,18.789l0.088,35.156
	l-33.791,8.283l-0.347-137.764l33.791-8.285l17.866,44.012c0.969,2.619,2.066,5.625,3.293,9.014
	C339.133-543.738,340.486-539.816,341.972-535.359z M872.064-815.018v30.963l-830,211.887v-30.963L872.064-815.018z M42.064-350.131
	l830-211.887v30.963l-830,211.887V-350.131z"/>
<path fill="#E6E6E6" d="M464.459,335.986l2.676,16.844l36.593-8.971L475.618,212.9l-43.3,10.615l-31.151,145.486l36.593-8.971
	l2.842-18.197L464.459,335.986z M448.794,288.67l2.421-17.291c0.054-0.309,0.166-1.199,0.332-2.67
	c0.166-1.469,0.442-4.094,0.83-7.881c0.221-1.898,0.428-3.646,0.623-5.242s0.346-3.031,0.457-4.309l1.137,12.756
	c0.289,2.607,0.521,4.77,0.695,6.48c0.174,1.715,0.318,3.064,0.436,4.047c1.097,8.777,1.704,13.809,1.822,15.086
	c0.174,1.508,0.289,2.281,0.345,2.328l2.333,15.498l-14.941,3.662L448.794,288.67z M591.297,322.391l-61.977,15.193l-0.347-137.764
	l35.403-8.68l0.264,104.662l26.574-6.516L591.297,322.391z M652.443,307.402l-35.403,8.678l-0.347-137.764l35.403-8.68
	L652.443,307.402z M752.447,178.07l-20.292,4.975l0.264,104.752l-35.404,8.678l-0.264-104.752l-19.526,4.787l-0.083-33.012
	l75.223-18.44L752.447,178.07z M871.666,115.811l-30.28,86.883l0.146,58.354l-35.403,8.68l-0.146-58.354l-32.718-71.439
	l36.933-9.054l6.419,18.872c1.254,3.68,2.382,7.242,3.382,10.688c0.999,3.445,1.899,6.766,2.701,9.963
	c1.289-5.375,2.41-10.01,3.363-13.904s1.795-7.061,2.524-9.504l6.4-22.191L871.666,115.811z M129.772,343.662
	c-0.039-15.584-5.108-26.365-15.203-32.342c-7.942-4.66-19.892-5.035-35.854-1.121l-36.253,8.887l0.347,137.766l35.233-8.639
	l-0.121-48.182l-0.277-9.039c0.627,1.754,1.155,3.26,1.584,4.523c0.428,1.266,0.728,2.291,0.898,3.082l17.613,44.787l38.291-9.387
	l-26.463-50.832C123.079,373.486,129.814,360.318,129.772,343.662z M90.58,366.217c-2.708,3.938-6.1,6.404-10.176,7.404
	l-2.377,0.582l-0.082-32.836l1.273-0.311c10.244-2.512,15.38,1.379,15.406,11.668C94.637,357.781,93.289,362.279,90.58,366.217z
	 M211.765,379.541c1.295-2.758,1.936-7.229,1.92-13.416l-0.224-88.959l35.404-8.678l0.245,97.436
	c0.021,8.148-1.181,15.051-3.601,20.701c-2.365,5.879-6.314,11.639-11.851,17.279c-7.457,7.543-16.534,12.625-27.232,15.248
	c-12.112,2.969-22.28,2.307-30.503-1.986c-10.436-5.477-15.675-17.049-15.719-34.717l-0.232-92.17l35.404-8.68l0.223,88.869
	c0.016,6.008,0.719,10.092,2.113,12.25c1.393,2.158,3.73,2.836,7.014,2.029C208.122,383.916,210.467,382.18,211.765,379.541z
	 M341.972,316.641l3.681,11.24c-1.332-11.635-2.348-21.623-3.049-29.965c-0.7-8.34-1.058-15.395-1.072-21.166l-0.078-30.961
	l33.791-8.283l0.347,137.766l-33.791,8.283l-17.956-46.309c-1.882-4.955-3.579-9.613-5.09-13.977
	c-1.513-4.359-2.84-8.543-3.982-12.549c0.76,9.516,1.319,17.83,1.678,24.945c0.357,7.115,0.543,13.377,0.557,18.789l0.088,35.156
	l-33.791,8.283l-0.347-137.764l33.791-8.285l17.866,44.012c0.969,2.619,2.066,5.625,3.293,9.014
	C339.133,308.262,340.486,312.184,341.972,316.641z M872.064,36.982v30.963l-830,211.887v-30.963L872.064,36.982z M42.064,501.869
	l830-211.887v30.963l-830,211.887V501.869z"/>
<path d="M1527.459-519.996l2.676,16.843l36.593-8.971l-28.109-130.958l-43.3,10.614l-31.151,145.486l36.593-8.971l2.842-18.196
	L1527.459-519.996z M1511.794-567.313l2.421-17.29c0.054-0.309,0.166-1.2,0.332-2.67s0.442-4.095,0.83-7.881
	c0.221-1.898,0.428-3.646,0.623-5.242s0.346-3.031,0.457-4.309l1.137,12.756c0.289,2.607,0.521,4.77,0.695,6.48
	c0.174,1.715,0.318,3.063,0.436,4.046c1.097,8.778,1.704,13.81,1.822,15.087c0.174,1.507,0.289,2.281,0.345,2.328l2.333,15.497
	l-14.941,3.663L1511.794-567.313z M1654.297-533.592l-61.977,15.193l-0.347-137.764l35.403-8.68l0.264,104.662l26.574-6.516
	L1654.297-533.592z M1715.443-548.58l-35.403,8.678l-0.347-137.764l35.403-8.68L1715.443-548.58z M1815.447-677.912l-20.292,4.974
	l0.264,104.752l-35.404,8.679l-0.264-104.752l-19.526,4.787l-0.083-33.012l75.223-18.441L1815.447-677.912z M1934.666-740.172
	l-30.28,86.883l0.146,58.354l-35.403,8.68l-0.146-58.354l-32.718-71.44l36.933-9.054l6.419,18.872
	c1.254,3.68,2.382,7.243,3.382,10.688c0.999,3.445,1.899,6.766,2.701,9.962c1.289-5.375,2.41-10.01,3.363-13.903
	c0.953-3.895,1.795-7.061,2.524-9.504l6.4-22.192L1934.666-740.172z M1192.772-512.32c-0.039-15.584-5.108-26.365-15.203-32.342
	c-7.942-4.661-19.892-5.035-35.854-1.121l-36.253,8.887l0.347,137.765l35.233-8.638l-0.121-48.182l-0.277-9.039
	c0.627,1.753,1.155,3.26,1.584,4.523c0.428,1.266,0.728,2.291,0.898,3.082l17.613,44.787l38.291-9.387l-26.463-50.832
	C1186.079-482.496,1192.814-495.664,1192.772-512.32z M1153.58-489.766c-2.708,3.938-6.1,6.404-10.176,7.403l-2.377,0.583
	l-0.082-32.836l1.273-0.312c10.244-2.511,15.38,1.38,15.406,11.669C1157.637-498.201,1156.289-493.703,1153.58-489.766z
	 M1274.765-476.441c1.295-2.758,1.936-7.229,1.92-13.416l-0.224-88.959l35.404-8.679l0.245,97.436
	c0.021,8.148-1.181,15.051-3.601,20.702c-2.365,5.879-6.314,11.638-11.851,17.279c-7.457,7.542-16.534,12.625-27.232,15.247
	c-12.112,2.97-22.28,2.308-30.503-1.985c-10.436-5.477-15.675-17.049-15.719-34.717l-0.232-92.17l35.404-8.68l0.223,88.869
	c0.016,6.008,0.719,10.092,2.113,12.25c1.393,2.158,3.73,2.835,7.014,2.029C1271.122-472.066,1273.467-473.803,1274.765-476.441z
	 M1404.972-539.342l3.681,11.24c-1.332-11.636-2.348-21.623-3.049-29.966c-0.7-8.339-1.058-15.394-1.072-21.165l-0.078-30.961
	l33.791-8.283l0.347,137.766l-33.791,8.283l-17.956-46.309c-1.882-4.955-3.579-9.614-5.09-13.977
	c-1.513-4.36-2.84-8.543-3.982-12.549c0.76,9.516,1.319,17.83,1.678,24.945c0.357,7.115,0.543,13.377,0.557,18.789l0.088,35.156
	l-33.791,8.283l-0.347-137.765l33.791-8.284l17.866,44.012c0.969,2.619,2.066,5.625,3.293,9.014
	C1402.133-547.721,1403.486-543.799,1404.972-539.342z M1935.064-819v30.962l-830,211.887v-30.963L1935.064-819z M1105.064-354.114
	l830-211.886v30.962l-830,211.887V-354.114z"/>
<g>
</g>
<g>
</g>
<g>
</g>
<g>
</g>
<g>
</g>
<g>
</g>
<g>
</g>
<g>
</g>
<g>
</g>
<g>
</g>
<g>
</g>
<g>
</g>
<g>
</g>
<g>
</g>
<g>
</g>
</svg>
