<?xml version="1.0" encoding="utf-8"?>
<!-- Generator: Adobe Illustrator 16.0.4, SVG Export Plug-In . SVG Version: 6.00 Build 0)  -->
<!DOCTYPE svg PUBLIC "-//W3C//DTD SVG 1.1//EN" "http://www.w3.org/Graphics/SVG/1.1/DTD/svg11.dtd">
<svg version="1.1" id="Layer_1" xmlns="http://www.w3.org/2000/svg" xmlns:xlink="http://www.w3.org/1999/xlink" x="0px" y="0px"
	 width="916.064px" height="550.982px" viewBox="0 0 916.064 550.982" enable-background="new 0 0 916.064 550.982"
	 xml:space="preserve">
<g>
	<path fill="#B3B3B3" d="M465.395,331.926l2.676,16.843l36.593-8.971L476.554,208.84l-43.3,10.614L402.103,364.94l36.593-8.971
		l2.842-18.196L465.395,331.926z M449.729,284.608l2.421-17.29c0.054-0.309,0.166-1.2,0.332-2.67s0.442-4.095,0.83-7.881
		c0.221-1.898,0.428-3.646,0.623-5.242s0.346-3.031,0.457-4.309l1.137,12.756c0.289,2.607,0.521,4.77,0.695,6.48
		c0.174,1.715,0.318,3.063,0.436,4.046c1.097,8.778,1.704,13.81,1.822,15.087c0.174,1.507,0.289,2.281,0.345,2.328l2.333,15.497
		l-14.941,3.663L449.729,284.608z M592.232,318.33l-61.977,15.193l-0.347-137.764l35.403-8.68l0.264,104.662l26.574-6.516
		L592.232,318.33z M653.379,303.342l-35.403,8.678l-0.347-137.764l35.403-8.68L653.379,303.342z M753.383,174.01l-20.292,4.974
		l0.264,104.752l-35.404,8.679l-0.264-104.752l-19.526,4.787l-0.083-33.012l75.223-18.441L753.383,174.01z M872.602,111.75
		l-30.28,86.883l0.146,58.354l-35.403,8.68l-0.146-58.354l-32.718-71.44l36.933-9.054l6.419,18.872
		c1.254,3.68,2.382,7.243,3.382,10.688c0.999,3.445,1.899,6.766,2.701,9.962c1.289-5.375,2.41-10.01,3.363-13.903
		c0.953-3.895,1.795-7.061,2.524-9.504l6.4-22.192L872.602,111.75z"/>
	<path d="M130.708,339.602c-0.039-15.584-5.108-26.365-15.203-32.342c-7.942-4.661-19.892-5.035-35.854-1.121l-36.253,8.887
		l0.347,137.765l35.233-8.638l-0.121-48.182l-0.277-9.039c0.627,1.753,1.155,3.26,1.584,4.523c0.428,1.266,0.728,2.291,0.898,3.082
		l17.613,44.787l38.291-9.387l-26.463-50.832C124.015,369.426,130.75,356.258,130.708,339.602z M91.516,362.156
		c-2.708,3.938-6.1,6.404-10.176,7.403l-2.377,0.583l-0.082-32.836l1.273-0.312c10.244-2.511,15.38,1.38,15.406,11.669
		C95.572,353.721,94.225,358.219,91.516,362.156z"/>
	<path d="M205.662,380.688c-3.283,0.806-5.621,0.129-7.014-2.029c-1.395-2.158-2.098-6.242-2.113-12.25l-0.223-88.869l-35.404,8.68
		l0.232,92.17c0.044,17.668,5.283,29.24,15.719,34.717c8.223,4.293,18.391,4.955,30.503,1.985
		c10.698-2.622,19.775-7.705,27.232-15.247c5.536-5.642,9.485-11.4,11.851-17.279c2.42-5.651,3.621-12.554,3.601-20.702
		l-0.245-97.436l-35.404,8.679l0.224,88.959c0.016,6.188-0.625,10.658-1.92,13.416C211.402,378.119,209.058,379.855,205.662,380.688
		z"/>
	<path d="M338.842,300.811c-1.227-3.389-2.324-6.395-3.293-9.014l-17.866-44.012l-33.791,8.284l0.347,137.765l33.791-8.283
		l-0.088-35.156c-0.014-5.412-0.199-11.674-0.557-18.789c-0.358-7.115-0.918-15.43-1.678-24.945
		c1.143,4.006,2.47,8.188,3.982,12.549c1.511,4.362,3.208,9.021,5.09,13.977l17.956,46.309l33.791-8.283l-0.347-137.766
		l-33.791,8.283l0.078,30.961c0.015,5.771,0.372,12.826,1.072,21.165c0.701,8.343,1.717,18.33,3.049,29.966l-3.681-11.24
		C341.422,308.123,340.068,304.201,338.842,300.811z"/>
	<polygon points="43,244.808 43,275.771 873,63.884 873,32.922 	"/>
	<polygon points="43,528.771 873,316.884 873,285.922 43,497.808 	"/>
</g>
<path fill="#FFFFFF" d="M1491.395,336.891l2.676,16.844l36.593-8.971l-28.109-130.959l-43.3,10.615l-31.151,145.486l36.593-8.971
	l2.842-18.197L1491.395,336.891z M1475.729,289.574l2.421-17.291c0.054-0.309,0.166-1.199,0.332-2.67
	c0.166-1.469,0.442-4.094,0.83-7.881c0.221-1.898,0.428-3.646,0.623-5.242s0.346-3.031,0.457-4.309l1.137,12.756
	c0.289,2.607,0.521,4.77,0.695,6.48c0.174,1.715,0.318,3.064,0.436,4.047c1.097,8.777,1.704,13.809,1.822,15.086
	c0.174,1.508,0.289,2.281,0.345,2.328l2.333,15.498l-14.941,3.662L1475.729,289.574z M1618.232,323.295l-61.977,15.193
	l-0.347-137.764l35.403-8.68l0.264,104.662l26.574-6.516L1618.232,323.295z M1679.379,308.307l-35.403,8.678l-0.347-137.764
	l35.403-8.68L1679.379,308.307z M1779.383,178.975l-20.292,4.975l0.264,104.752l-35.404,8.678l-0.264-104.752l-19.526,4.787
	l-0.083-33.012l75.223-18.44L1779.383,178.975z M1898.602,116.715l-30.28,86.883l0.146,58.354l-35.403,8.68l-0.146-58.354
	l-32.718-71.439l36.933-9.054l6.419,18.872c1.254,3.68,2.382,7.242,3.382,10.688c0.999,3.445,1.899,6.766,2.701,9.963
	c1.289-5.375,2.41-10.01,3.363-13.904s1.795-7.061,2.524-9.504l6.4-22.191L1898.602,116.715z M1156.708,344.566
	c-0.039-15.584-5.108-26.365-15.203-32.342c-7.942-4.66-19.892-5.035-35.854-1.121l-36.253,8.887l0.347,137.766l35.233-8.639
	l-0.121-48.182l-0.277-9.039c0.627,1.754,1.155,3.26,1.584,4.523c0.428,1.266,0.728,2.291,0.898,3.082l17.613,44.787l38.291-9.387
	l-26.463-50.832C1150.015,374.391,1156.75,361.223,1156.708,344.566z M1117.516,367.121c-2.708,3.938-6.1,6.404-10.176,7.404
	l-2.377,0.582l-0.082-32.836l1.273-0.311c10.244-2.512,15.38,1.379,15.406,11.668
	C1121.572,358.686,1120.225,363.184,1117.516,367.121z M1238.7,380.445c1.295-2.758,1.936-7.229,1.92-13.416l-0.224-88.959
	l35.404-8.678l0.245,97.436c0.021,8.148-1.181,15.051-3.601,20.701c-2.365,5.879-6.314,11.639-11.851,17.279
	c-7.457,7.543-16.534,12.625-27.232,15.248c-12.112,2.969-22.28,2.307-30.503-1.986c-10.436-5.477-15.675-17.049-15.719-34.717
	l-0.232-92.17l35.404-8.68l0.223,88.869c0.016,6.008,0.719,10.092,2.113,12.25c1.393,2.158,3.73,2.836,7.014,2.029
	C1235.058,384.82,1237.402,383.084,1238.7,380.445z M1368.907,317.545l3.681,11.24c-1.332-11.635-2.348-21.623-3.049-29.965
	c-0.7-8.34-1.058-15.395-1.072-21.166l-0.078-30.961l33.791-8.283l0.347,137.766l-33.791,8.283l-17.956-46.309
	c-1.882-4.955-3.579-9.613-5.09-13.977c-1.513-4.359-2.84-8.543-3.982-12.549c0.76,9.516,1.319,17.83,1.678,24.945
	c0.357,7.115,0.543,13.377,0.557,18.789l0.088,35.156l-33.791,8.283l-0.347-137.764l33.791-8.285l17.866,44.012
	c0.969,2.619,2.066,5.625,3.293,9.014C1366.068,309.166,1367.422,313.088,1368.907,317.545z M1899,37.887V68.85l-830,211.887
	v-30.963L1899,37.887z M1069,502.773l830-211.887v30.963l-830,211.887V502.773z"/>
<path fill="#E6E6E6" d="M1491.395,1188.891l2.676,16.844l36.593-8.971l-28.109-130.959l-43.3,10.615l-31.151,145.486l36.593-8.971
	l2.842-18.197L1491.395,1188.891z M1475.729,1141.574l2.421-17.291c0.054-0.309,0.166-1.199,0.332-2.67
	c0.166-1.469,0.442-4.094,0.83-7.881c0.221-1.898,0.428-3.646,0.623-5.242s0.346-3.031,0.457-4.309l1.137,12.756
	c0.289,2.607,0.521,4.77,0.695,6.48c0.174,1.715,0.318,3.064,0.436,4.047c1.097,8.777,1.704,13.809,1.822,15.086
	c0.174,1.508,0.289,2.281,0.345,2.328l2.333,15.498l-14.941,3.662L1475.729,1141.574z M1618.232,1175.295l-61.977,15.193
	l-0.347-137.764l35.403-8.68l0.264,104.662l26.574-6.516L1618.232,1175.295z M1679.379,1160.307l-35.403,8.678l-0.347-137.764
	l35.403-8.68L1679.379,1160.307z M1779.383,1030.975l-20.292,4.975l0.264,104.752l-35.404,8.678l-0.264-104.752l-19.526,4.787
	l-0.083-33.012l75.223-18.44L1779.383,1030.975z M1898.602,968.715l-30.28,86.883l0.146,58.354l-35.403,8.68l-0.146-58.354
	l-32.718-71.439l36.933-9.054l6.419,18.872c1.254,3.68,2.382,7.242,3.382,10.688c0.999,3.445,1.899,6.766,2.701,9.963
	c1.289-5.375,2.41-10.01,3.363-13.904s1.795-7.061,2.524-9.504l6.4-22.191L1898.602,968.715z M1156.708,1196.566
	c-0.039-15.584-5.108-26.365-15.203-32.342c-7.942-4.66-19.892-5.035-35.854-1.121l-36.253,8.887l0.347,137.766l35.233-8.639
	l-0.121-48.182l-0.277-9.039c0.627,1.754,1.155,3.26,1.584,4.523c0.428,1.266,0.728,2.291,0.898,3.082l17.613,44.787l38.291-9.387
	l-26.463-50.832C1150.015,1226.391,1156.75,1213.223,1156.708,1196.566z M1117.516,1219.121c-2.708,3.938-6.1,6.404-10.176,7.404
	l-2.377,0.582l-0.082-32.836l1.273-0.311c10.244-2.512,15.38,1.379,15.406,11.668
	C1121.572,1210.686,1120.225,1215.184,1117.516,1219.121z M1238.7,1232.445c1.295-2.758,1.936-7.229,1.92-13.416l-0.224-88.959
	l35.404-8.678l0.245,97.436c0.021,8.148-1.181,15.051-3.601,20.701c-2.365,5.879-6.314,11.639-11.851,17.279
	c-7.457,7.543-16.534,12.625-27.232,15.248c-12.112,2.969-22.28,2.307-30.503-1.986c-10.436-5.477-15.675-17.049-15.719-34.717
	l-0.232-92.17l35.404-8.68l0.223,88.869c0.016,6.008,0.719,10.092,2.113,12.25c1.393,2.158,3.73,2.836,7.014,2.029
	C1235.058,1236.82,1237.402,1235.084,1238.7,1232.445z M1368.907,1169.545l3.681,11.24c-1.332-11.635-2.348-21.623-3.049-29.965
	c-0.7-8.34-1.058-15.395-1.072-21.166l-0.078-30.961l33.791-8.283l0.347,137.766l-33.791,8.283l-17.956-46.309
	c-1.882-4.955-3.579-9.613-5.09-13.977c-1.513-4.359-2.84-8.543-3.982-12.549c0.76,9.516,1.319,17.83,1.678,24.945
	c0.357,7.115,0.543,13.377,0.557,18.789l0.088,35.156l-33.791,8.283l-0.347-137.764l33.791-8.285l17.866,44.012
	c0.969,2.619,2.066,5.625,3.293,9.014C1366.068,1161.166,1367.422,1165.088,1368.907,1169.545z M1899,889.887v30.963l-830,211.887
	v-30.963L1899,889.887z M1069,1354.773l830-211.887v30.963l-830,211.887V1354.773z"/>
<path d="M2554.395,332.908l2.676,16.843l36.593-8.971l-28.109-130.958l-43.3,10.614l-31.151,145.486l36.593-8.971l2.842-18.196
	L2554.395,332.908z M2538.729,285.591l2.421-17.29c0.054-0.309,0.166-1.2,0.332-2.67s0.442-4.095,0.83-7.881
	c0.221-1.898,0.428-3.646,0.623-5.242s0.346-3.031,0.457-4.309l1.137,12.756c0.289,2.607,0.521,4.77,0.695,6.48
	c0.174,1.715,0.318,3.063,0.436,4.046c1.097,8.778,1.704,13.81,1.822,15.087c0.174,1.507,0.289,2.281,0.345,2.328l2.333,15.497
	l-14.941,3.663L2538.729,285.591z M2681.232,319.312l-61.977,15.193l-0.347-137.764l35.403-8.68l0.264,104.662l26.574-6.516
	L2681.232,319.312z M2742.379,304.324l-35.403,8.678l-0.347-137.764l35.403-8.68L2742.379,304.324z M2842.383,174.992l-20.292,4.974
	l0.264,104.752l-35.404,8.679l-0.264-104.752l-19.526,4.787l-0.083-33.012l75.223-18.441L2842.383,174.992z M2961.602,112.732
	l-30.28,86.883l0.146,58.354l-35.403,8.68l-0.146-58.354l-32.718-71.44l36.933-9.054l6.419,18.872
	c1.254,3.68,2.382,7.243,3.382,10.688c0.999,3.445,1.899,6.766,2.701,9.962c1.289-5.375,2.41-10.01,3.363-13.903
	c0.953-3.895,1.795-7.061,2.524-9.504l6.4-22.192L2961.602,112.732z M2219.708,340.584c-0.039-15.584-5.108-26.365-15.203-32.342
	c-7.942-4.661-19.892-5.035-35.854-1.121l-36.253,8.887l0.347,137.765l35.233-8.638l-0.121-48.182l-0.277-9.039
	c0.627,1.753,1.155,3.26,1.584,4.523c0.428,1.266,0.728,2.291,0.898,3.082l17.613,44.787l38.291-9.387l-26.463-50.832
	C2213.015,370.408,2219.75,357.24,2219.708,340.584z M2180.516,363.139c-2.708,3.938-6.1,6.404-10.176,7.403l-2.377,0.583
	l-0.082-32.836l1.273-0.312c10.244-2.511,15.38,1.38,15.406,11.669C2184.572,354.703,2183.225,359.201,2180.516,363.139z
	 M2301.7,376.463c1.295-2.758,1.936-7.229,1.92-13.416l-0.224-88.959l35.404-8.679l0.245,97.436
	c0.021,8.148-1.181,15.051-3.601,20.702c-2.365,5.879-6.314,11.638-11.851,17.279c-7.457,7.542-16.534,12.625-27.232,15.247
	c-12.112,2.97-22.28,2.308-30.503-1.985c-10.436-5.477-15.675-17.049-15.719-34.717l-0.232-92.17l35.404-8.68l0.223,88.869
	c0.016,6.008,0.719,10.092,2.113,12.25c1.393,2.158,3.73,2.835,7.014,2.029C2298.058,380.838,2300.402,379.102,2301.7,376.463z
	 M2431.907,313.562l3.681,11.24c-1.332-11.636-2.348-21.623-3.049-29.966c-0.7-8.339-1.058-15.394-1.072-21.165l-0.078-30.961
	l33.791-8.283l0.347,137.766l-33.791,8.283l-17.956-46.309c-1.882-4.955-3.579-9.614-5.09-13.977
	c-1.513-4.36-2.84-8.543-3.982-12.549c0.76,9.516,1.319,17.83,1.678,24.945c0.357,7.115,0.543,13.377,0.557,18.789l0.088,35.156
	l-33.791,8.283l-0.347-137.765l33.791-8.284l17.866,44.012c0.969,2.619,2.066,5.625,3.293,9.014
	C2429.068,305.184,2430.422,309.105,2431.907,313.562z M2962,33.904v30.962l-830,211.887V245.79L2962,33.904z M2132,498.79
	l830-211.886v30.962l-830,211.887V498.79z"/>
</svg>
